<svg width="451" height="451" viewBox="0 0 451 451" fill="none" xmlns="http://www.w3.org/2000/svg">
<path d="M190.882 56.9214L78.309 170.967C56.7034 192.858 44.5634 222.554 44.5634 253.513C44.5634 300.6 82.238 338.771 128.717 338.771C153.343 338.771 176.962 328.862 194.375 311.215L279.085 225.394C291.45 212.863 308.225 205.824 325.714 205.824C351.024 205.824 371.54 226.611 371.54 252.251C371.54 271.114 364.17 289.212 351.046 302.584L205.719 450.743L69.3468 450.743C31.0487 450.743 -1.35718e-06 419.694 -3.03124e-06 381.396L-1.54514e-05 97.2553C-1.77993e-05 43.5418 42.9783 5.34345e-05 95.9932 5.11171e-05C149.008 4.87998e-05 190.882 56.9214 190.882 56.9214ZM381.396 450.743C419.694 450.743 450.743 419.694 450.743 381.396L450.743 111.454C450.743 50.1452 401.687 0.450762 341.175 0.450765C317.541 0.450766 294.876 9.96145 278.161 26.8944L94.8814 212.578C85.2355 222.352 79.819 235.603 79.819 249.426C79.819 278.026 102.702 301.209 130.933 301.209C143.93 301.209 156.393 295.98 165.588 286.665L260.935 190.071C276.493 174.31 297.588 165.453 319.592 165.453C369.061 165.453 409.162 206.08 409.162 256.202C409.162 285.185 397.796 312.973 377.572 333.467L261.814 450.743L381.396 450.743Z" fill="#E9E4DE"/>
</svg>
